<?xml version="1.0" encoding="UTF-8" standalone="no"?>
<svg
   version="1.1"
   id="svg4256"
   width="1000"
   height="170.99416"
   viewBox="0 0 1000 170.99436"
   inkscape:version="1.2.1 (9c6d41e410, 2022-07-14)"
   sodipodi:docname="Telkomsel_2021.svg"
   xml:space="preserve"
   xmlns:inkscape="http://www.inkscape.org/namespaces/inkscape"
   xmlns:sodipodi="http://sodipodi.sourceforge.net/DTD/sodipodi-0.dtd"
   xmlns="http://www.w3.org/2000/svg"
   xmlns:svg="http://www.w3.org/2000/svg"
   xmlns:rdf="http://www.w3.org/1999/02/22-rdf-syntax-ns#"
   xmlns:cc="http://creativecommons.org/ns#"
   xmlns:dc="http://purl.org/dc/elements/1.1/"><sodipodi:namedview
     pagecolor="#ffffff"
     bordercolor="#666666"
     borderopacity="1"
     objecttolerance="10"
     gridtolerance="10"
     guidetolerance="10"
     inkscape:pageopacity="0"
     inkscape:pageshadow="2"
     inkscape:window-width="1366"
     inkscape:window-height="705"
     id="namedview6"
     showgrid="false"
     inkscape:zoom="0.70710678"
     inkscape:cx="505.58135"
     inkscape:cy="89.095454"
     inkscape:window-x="-8"
     inkscape:window-y="-8"
     inkscape:window-maximized="1"
     inkscape:current-layer="svg4256"
     showguides="false"
     inkscape:document-rotation="0"
     inkscape:showpageshadow="2"
     inkscape:pagecheckerboard="0"
     inkscape:deskcolor="#d1d1d1" /><metadata
     id="metadata4264"><rdf:RDF><cc:Work
         rdf:about=""><dc:format>image/svg+xml</dc:format><dc:type
           rdf:resource="http://purl.org/dc/dcmitype/StillImage" /><dc:title /></cc:Work></rdf:RDF></metadata><defs
     id="defs4262" /><g
     id="g2400"><path
       style="color:#000000;font-style:normal;font-variant:normal;font-weight:normal;font-stretch:normal;font-size:medium;line-height:normal;font-family:sans-serif;font-variant-ligatures:normal;font-variant-position:normal;font-variant-caps:normal;font-variant-numeric:normal;font-variant-alternates:normal;font-variant-east-asian:normal;font-feature-settings:normal;font-variation-settings:normal;text-indent:0;text-align:start;text-decoration:none;text-decoration-line:none;text-decoration-style:solid;text-decoration-color:#000000;letter-spacing:normal;word-spacing:normal;text-transform:none;writing-mode:lr-tb;direction:ltr;text-orientation:mixed;dominant-baseline:auto;baseline-shift:baseline;text-anchor:start;white-space:normal;shape-padding:0;shape-margin:0;inline-size:0;clip-rule:nonzero;display:inline;overflow:visible;visibility:visible;opacity:1;isolation:auto;mix-blend-mode:normal;color-interpolation:sRGB;color-interpolation-filters:linearRGB;solid-color:#000000;solid-opacity:1;vector-effect:none;fill:#ff0025;fill-opacity:1;fill-rule:evenodd;stroke:none;stroke-width:55.9836;stroke-linecap:butt;stroke-linejoin:miter;stroke-miterlimit:4;stroke-dasharray:none;stroke-dashoffset:0;stroke-opacity:1;paint-order:stroke fill markers;color-rendering:auto;image-rendering:auto;shape-rendering:auto;text-rendering:auto;enable-background:accumulate;stop-color:#000000"
       d="m 890.78367,47.62701 c -36.37362,-0.0858 -60.26334,25.899836 -60.26374,63.05672 -5e-4,41.7492 32.56272,60.31061 64.21101,60.31061 19.17056,0 33.99303,-6.95784 41.57036,-11.68751 v -28.20902 c -5.25793,4.46101 -21.31873,13.2986 -37.41411,13.35744 -18.55826,0.0678 -33.8866,-7.82187 -37.21488,-25.84378 h 81.88291 c 0.3937,-3.12892 1.111,-7.46744 1.0957,-12.41603 C 944.53802,69.639062 920.01666,47.696 890.78367,47.62701 Z m -0.91406,24.169951 c 16.15476,-0.12702 23.33048,13.733986 23.53518,24.431669 h -50.90045 c 4.24098,-18.773167 16.55914,-24.346699 27.36527,-24.431669 z"
       id="path2388" /><path
       style="color:#000000;font-style:normal;font-variant:normal;font-weight:normal;font-stretch:normal;font-size:medium;line-height:normal;font-family:sans-serif;font-variant-ligatures:normal;font-variant-position:normal;font-variant-caps:normal;font-variant-numeric:normal;font-variant-alternates:normal;font-variant-east-asian:normal;font-feature-settings:normal;font-variation-settings:normal;text-indent:0;text-align:start;text-decoration:none;text-decoration-line:none;text-decoration-style:solid;text-decoration-color:#000000;letter-spacing:normal;word-spacing:normal;text-transform:none;writing-mode:lr-tb;direction:ltr;text-orientation:mixed;dominant-baseline:auto;baseline-shift:baseline;text-anchor:start;white-space:normal;shape-padding:0;shape-margin:0;inline-size:0;clip-rule:nonzero;display:inline;overflow:visible;visibility:visible;opacity:1;isolation:auto;mix-blend-mode:normal;color-interpolation:sRGB;color-interpolation-filters:linearRGB;solid-color:#000000;solid-opacity:1;vector-effect:none;fill:#ff0025;fill-opacity:1;fill-rule:evenodd;stroke:none;stroke-width:55.9836;stroke-linecap:butt;stroke-linejoin:miter;stroke-miterlimit:4;stroke-dasharray:none;stroke-dashoffset:0;stroke-opacity:1;paint-order:stroke fill markers;color-rendering:auto;image-rendering:auto;shape-rendering:auto;text-rendering:auto;enable-background:accumulate;stop-color:#000000"
       d="m 777.06478,47.62701 c -28.34214,0 -47.90316,13.505733 -47.9063,37.593795 -0.002,14.46968 10.54428,26.327475 31.44144,32.748085 20.89706,6.42062 29.72714,8.96863 29.65824,16.02346 -0.0689,7.0548 -5.10873,11.54298 -19.80276,11.54298 -14.69406,0 -29.70701,-6.52688 -40.40434,-16.18361 v 29.45511 c 7.99293,5.97665 23.28366,12.18751 41.73442,12.18751 31.37739,0 49.59887,-13.7014 49.74615,-38.90434 0.0943,-16.13884 -10.86793,-26.75854 -27.35159,-32.527381 -16.48366,-5.768828 -33.49576,-7.608884 -33.52153,-16.33791 -0.0217,-7.362697 5.46189,-10.630725 17.61135,-10.513685 15.31553,0.14754 29.30029,5.159778 35.98637,11.785171 V 57.091865 C 808.02215,53.484093 796.81234,47.62701 777.06478,47.62701 Z"
       id="path2386" /><path
       style="color:#000000;font-style:normal;font-variant:normal;font-weight:normal;font-stretch:normal;font-size:medium;line-height:normal;font-family:sans-serif;font-variant-ligatures:normal;font-variant-position:normal;font-variant-caps:normal;font-variant-numeric:normal;font-variant-alternates:normal;font-variant-east-asian:normal;font-feature-settings:normal;font-variation-settings:normal;text-indent:0;text-align:start;text-decoration:none;text-decoration-line:none;text-decoration-style:solid;text-decoration-color:#000000;letter-spacing:normal;word-spacing:normal;text-transform:none;writing-mode:lr-tb;direction:ltr;text-orientation:mixed;dominant-baseline:auto;baseline-shift:baseline;text-anchor:start;white-space:normal;shape-padding:0;shape-margin:0;inline-size:0;clip-rule:nonzero;display:inline;overflow:visible;visibility:visible;opacity:1;isolation:auto;mix-blend-mode:normal;color-interpolation:sRGB;color-interpolation-filters:linearRGB;solid-color:#000000;solid-opacity:1;vector-effect:none;fill:#ff0025;fill-opacity:1;fill-rule:evenodd;stroke:none;stroke-width:55.9836;stroke-linecap:butt;stroke-linejoin:miter;stroke-miterlimit:4;stroke-dasharray:none;stroke-dashoffset:0;stroke-opacity:1;paint-order:stroke fill markers;color-rendering:auto;image-rendering:auto;shape-rendering:auto;text-rendering:auto;enable-background:accumulate;stop-color:#000000"
       d="m 595.57629,47.62701 c -15.78278,0 -26.59476,5.973861 -31.53129,18.152365 -0.56081,-8.608352 -8.83983,-16.283222 -18.38674,-16.283222 H 531.44144 V 169.04122 h 32.6309 v -61.20711 c 0,-17.397635 7.55556,-32.703241 22.48831,-32.515661 15.03558,0.18887 19.07815,9.108325 19.07815,22.023464 v 71.699307 h 32.62699 v -61.20711 c 0,-17.397685 6.97545,-32.703241 21.90823,-32.515661 15.03561,0.18887 19.74221,9.108305 19.74221,22.023464 v 71.699307 h 32.62895 V 89.748154 c 0,-27.475431 -19.96028,-42.121144 -44.35357,-42.121144 -15.78793,0 -28.01365,7.557268 -36.9063,19.906274 C 624.47963,53.657182 612.64922,47.62701 595.57629,47.62701 Z"
       id="path2384" /><path
       style="color:#000000;font-style:normal;font-variant:normal;font-weight:normal;font-stretch:normal;font-size:medium;line-height:normal;font-family:sans-serif;font-variant-ligatures:normal;font-variant-position:normal;font-variant-caps:normal;font-variant-numeric:normal;font-variant-alternates:normal;font-variant-east-asian:normal;font-feature-settings:normal;font-variation-settings:normal;text-indent:0;text-align:start;text-decoration:none;text-decoration-line:none;text-decoration-style:solid;text-decoration-color:#000000;letter-spacing:normal;word-spacing:normal;text-transform:none;writing-mode:lr-tb;direction:ltr;text-orientation:mixed;dominant-baseline:auto;baseline-shift:baseline;text-anchor:start;white-space:normal;shape-padding:0;shape-margin:0;inline-size:0;clip-rule:nonzero;display:inline;overflow:visible;visibility:visible;opacity:1;isolation:auto;mix-blend-mode:normal;color-interpolation:sRGB;color-interpolation-filters:linearRGB;solid-color:#000000;solid-opacity:1;vector-effect:none;fill:#ff0025;fill-opacity:1;fill-rule:evenodd;stroke:none;stroke-width:55.9836;stroke-linecap:butt;stroke-linejoin:miter;stroke-miterlimit:4;stroke-dasharray:none;stroke-dashoffset:0;stroke-opacity:1;paint-order:stroke fill markers;color-rendering:auto;image-rendering:auto;shape-rendering:auto;text-rendering:auto;enable-background:accumulate;stop-color:#000000"
       d="m 453.65034,47.62701 c -36.85197,-0.0568 -62.66541,26.286879 -62.61531,61.55867 0.0501,35.27171 25.34491,61.82335 62.61531,61.80866 37.27035,-0.0147 62.03118,-26.93488 62.03327,-61.80866 0.002,-34.873851 -25.18137,-61.50187 -62.03327,-61.55867 z m 0,28.158237 c 17.5892,0 29.63675,13.454347 29.63675,33.400433 0,19.94606 -12.46301,33.40043 -29.63675,33.40043 -17.17385,0 -30.13285,-12.83127 -30.13285,-33.40043 0,-20.569144 12.54355,-33.400433 30.13285,-33.400433 z"
       id="path2382" /><path
       style="color:#000000;font-style:normal;font-variant:normal;font-weight:normal;font-stretch:normal;font-size:medium;line-height:normal;font-family:sans-serif;font-variant-ligatures:normal;font-variant-position:normal;font-variant-caps:normal;font-variant-numeric:normal;font-variant-alternates:normal;font-variant-east-asian:normal;font-feature-settings:normal;font-variation-settings:normal;text-indent:0;text-align:start;text-decoration:none;text-decoration-line:none;text-decoration-style:solid;text-decoration-color:#000000;letter-spacing:normal;word-spacing:normal;text-transform:none;writing-mode:lr-tb;direction:ltr;text-orientation:mixed;dominant-baseline:auto;baseline-shift:baseline;text-anchor:start;white-space:normal;shape-padding:0;shape-margin:0;inline-size:0;clip-rule:nonzero;display:inline;overflow:visible;visibility:visible;opacity:1;isolation:auto;mix-blend-mode:normal;color-interpolation:sRGB;color-interpolation-filters:linearRGB;solid-color:#000000;solid-opacity:1;vector-effect:none;fill:#ff0025;fill-opacity:1;fill-rule:evenodd;stroke:none;stroke-width:55.9836;stroke-linecap:butt;stroke-linejoin:miter;stroke-miterlimit:4;stroke-dasharray:none;stroke-dashoffset:0;stroke-opacity:1;paint-order:stroke fill markers;color-rendering:auto;image-rendering:auto;shape-rendering:auto;text-rendering:auto;enable-background:accumulate;stop-color:#000000"
       d="m 160.12459,47.62701 c -36.37375,-0.08582 -60.26331,25.899836 -60.26374,63.05672 -4.8e-4,41.7492 32.56289,60.31061 64.21101,60.31061 19.17063,0 33.99298,-6.95784 41.57037,-11.68751 v -28.20902 c -5.25797,4.46101 -21.31864,13.2986 -37.41411,13.35744 -18.55824,0.0678 -33.88467,-7.82187 -37.21294,-25.84378 h 81.88096 c 0.39371,-3.12892 1.11294,-7.46744 1.09766,-12.41603 -0.11287,-36.556378 -24.6363,-58.499459 -53.86921,-58.56843 z m -0.91406,24.169951 c 16.15472,-0.12702 23.33052,13.733986 23.53519,24.431669 h -50.90046 c 4.24092,-18.773167 16.55912,-24.346699 27.36527,-24.431669 z"
       id="path2380" /><path
       id="path2378"
       style="color:#000000;font-style:normal;font-variant:normal;font-weight:normal;font-stretch:normal;font-size:medium;line-height:normal;font-family:sans-serif;font-variant-ligatures:normal;font-variant-position:normal;font-variant-caps:normal;font-variant-numeric:normal;font-variant-alternates:normal;font-variant-east-asian:normal;font-feature-settings:normal;font-variation-settings:normal;text-indent:0;text-align:start;text-decoration:none;text-decoration-line:none;text-decoration-style:solid;text-decoration-color:#000000;letter-spacing:normal;word-spacing:normal;text-transform:none;writing-mode:lr-tb;direction:ltr;text-orientation:mixed;dominant-baseline:auto;baseline-shift:baseline;text-anchor:start;white-space:normal;shape-padding:0;shape-margin:0;inline-size:0;clip-rule:nonzero;display:inline;overflow:visible;visibility:visible;opacity:1;isolation:auto;mix-blend-mode:normal;color-interpolation:sRGB;color-interpolation-filters:linearRGB;solid-color:#000000;solid-opacity:1;vector-effect:none;fill:#ff0025;fill-opacity:1;fill-rule:evenodd;stroke:none;stroke-width:55.9836;stroke-linecap:butt;stroke-linejoin:miter;stroke-miterlimit:4;stroke-dasharray:none;stroke-dashoffset:0;stroke-opacity:1;paint-order:stroke fill markers;color-rendering:auto;image-rendering:auto;shape-rendering:auto;text-rendering:auto;enable-background:accumulate;stop-color:#000000"
       d="M 18.64005 5.199225 C 8.7758193 5.199225 -0.00059685142 13.232449 -0.00059685142 22.375027 L -0.00059685142 39.156297 L 47.407663 39.156297 L 47.407663 148.61541 C 47.407663 163.98297 58.359496 170.99434 69.085423 170.99434 C 79.811355 170.99433 86.612788 167.42012 86.612788 167.42012 C 86.612788 167.42012 80.044421 162.12609 80.044421 138.59001 L 80.044421 33.6309 C 80.044421 23.47856 68.211448 5.199175 48.737743 5.199225 L 18.64005 5.199225 z M 69.624486 5.199225 C 69.002749 5.199225 68.501438 5.6985851 68.501438 6.32032 C 68.501438 6.9420852 69.126229 7.4035831 69.624486 7.7753999 C 71.68921 9.3163079 78.125748 13.877453 81.198719 20.119165 C 84.271695 26.360854 84.344719 32.024916 86.341303 35.296917 C 88.337907 38.568933 91.596257 39.156297 95.042485 39.156297 L 119.81986 39.156297 C 125.29474 39.156297 127.44487 35.477791 127.44487 31.113318 L 127.44487 5.199225 L 69.624486 5.199225 z " /><path
       style="color:#000000;font-style:normal;font-variant:normal;font-weight:normal;font-stretch:normal;font-size:medium;line-height:normal;font-family:sans-serif;font-variant-ligatures:normal;font-variant-position:normal;font-variant-caps:normal;font-variant-numeric:normal;font-variant-alternates:normal;font-variant-east-asian:normal;font-feature-settings:normal;font-variation-settings:normal;text-indent:0;text-align:start;text-decoration:none;text-decoration-line:none;text-decoration-style:solid;text-decoration-color:#000000;letter-spacing:normal;word-spacing:normal;text-transform:none;writing-mode:lr-tb;direction:ltr;text-orientation:mixed;dominant-baseline:auto;baseline-shift:baseline;text-anchor:start;white-space:normal;shape-padding:0;shape-margin:0;inline-size:0;clip-rule:nonzero;display:inline;overflow:visible;visibility:visible;opacity:1;isolation:auto;mix-blend-mode:normal;color-interpolation:sRGB;color-interpolation-filters:linearRGB;solid-color:#000000;solid-opacity:1;vector-effect:none;fill:#ff0025;fill-opacity:1;fill-rule:evenodd;stroke:none;stroke-width:55.9836;stroke-linecap:butt;stroke-linejoin:miter;stroke-miterlimit:4;stroke-dasharray:none;stroke-dashoffset:0;stroke-opacity:1;paint-order:stroke fill markers;color-rendering:auto;image-rendering:auto;shape-rendering:auto;text-rendering:auto;enable-background:accumulate;stop-color:#000000"
       d="m 960.79352,0 v 148.61541 c 0,15.36757 10.95203,22.37893 21.67776,22.37893 10.72593,-1e-5 17.52932,-3.57422 17.52932,-3.57422 0,0 -6.57032,-5.29401 -6.57032,-28.83011 V 19.787133 C 993.43028,9.6347647 986.95631,0 975.01033,0 Z"
       id="path2374" /><path
       style="color:#000000;font-style:normal;font-variant:normal;font-weight:normal;font-stretch:normal;font-size:medium;line-height:normal;font-family:sans-serif;font-variant-ligatures:normal;font-variant-position:normal;font-variant-caps:normal;font-variant-numeric:normal;font-variant-alternates:normal;font-variant-east-asian:normal;font-feature-settings:normal;font-variation-settings:normal;text-indent:0;text-align:start;text-decoration:none;text-decoration-line:none;text-decoration-style:solid;text-decoration-color:#000000;letter-spacing:normal;word-spacing:normal;text-transform:none;writing-mode:lr-tb;direction:ltr;text-orientation:mixed;dominant-baseline:auto;baseline-shift:baseline;text-anchor:start;white-space:normal;shape-padding:0;shape-margin:0;inline-size:0;clip-rule:nonzero;display:inline;overflow:visible;visibility:visible;opacity:1;isolation:auto;mix-blend-mode:normal;color-interpolation:sRGB;color-interpolation-filters:linearRGB;solid-color:#000000;solid-opacity:1;vector-effect:none;fill:#ff0025;fill-opacity:1;fill-rule:evenodd;stroke:none;stroke-width:55.9836;stroke-linecap:butt;stroke-linejoin:miter;stroke-miterlimit:4;stroke-dasharray:none;stroke-dashoffset:0;stroke-opacity:1;paint-order:stroke fill markers;color-rendering:auto;image-rendering:auto;shape-rendering:auto;text-rendering:auto;enable-background:accumulate;stop-color:#000000"
       d="m 284.34545,0 v 169.04122 h 32.62894 v -53.44538 l 28.78324,33.6602 c 8.70601,10.18114 15.00746,19.78518 29.30472,19.78518 h 26.10355 l -34.46879,-39.84575 c -7.85584,-9.08127 -13.73022,-17.82505 -25.18949,-19.4805 -0.32451,-0.0469 -0.58984,-0.26197 -0.58984,-0.58984 0,-0.32787 0.2696,-0.52339 0.58984,-0.59375 9.88591,-2.17181 15.58044,-10.476796 22.64456,-19.187523 l 32.31449,-39.847704 h -36.96098 l -42.5313,51.902407 V 0 Z"
       id="path2372" /><path
       style="color:#000000;font-style:normal;font-variant:normal;font-weight:normal;font-stretch:normal;font-size:medium;line-height:normal;font-family:sans-serif;font-variant-ligatures:normal;font-variant-position:normal;font-variant-caps:normal;font-variant-numeric:normal;font-variant-alternates:normal;font-variant-east-asian:normal;font-feature-settings:normal;font-variation-settings:normal;text-indent:0;text-align:start;text-decoration:none;text-decoration-line:none;text-decoration-style:solid;text-decoration-color:#000000;letter-spacing:normal;word-spacing:normal;text-transform:none;writing-mode:lr-tb;direction:ltr;text-orientation:mixed;dominant-baseline:auto;baseline-shift:baseline;text-anchor:start;white-space:normal;shape-padding:0;shape-margin:0;inline-size:0;clip-rule:nonzero;display:inline;overflow:visible;visibility:visible;opacity:1;isolation:auto;mix-blend-mode:normal;color-interpolation:sRGB;color-interpolation-filters:linearRGB;solid-color:#000000;solid-opacity:1;vector-effect:none;fill:#ff0025;fill-opacity:1;fill-rule:evenodd;stroke:none;stroke-width:55.9836;stroke-linecap:butt;stroke-linejoin:miter;stroke-miterlimit:4;stroke-dasharray:none;stroke-dashoffset:0;stroke-opacity:1;paint-order:stroke fill markers;color-rendering:auto;image-rendering:auto;shape-rendering:auto;text-rendering:auto;enable-background:accumulate;stop-color:#000000"
       d="m 230.30046,0 v 148.61541 c 0,15.36756 10.95185,22.37893 21.67776,22.37893 10.72594,-1e-5 17.52932,-3.57422 17.52932,-3.57422 0,0 -6.57032,-5.29404 -6.57032,-28.83011 V 19.787133 C 262.93722,9.6347747 256.46323,0 244.51727,0 Z"
       id="path3280" /></g></svg>
